<?xml version="1.0" encoding="UTF-8" standalone="no"?><!DOCTYPE svg PUBLIC "-//W3C//DTD SVG 1.1//EN" "http://www.w3.org/Graphics/SVG/1.1/DTD/svg11.dtd"><svg width="100%" height="100%" viewBox="0 0 2500 500" version="1.1" xmlns="http://www.w3.org/2000/svg" xmlns:xlink="http://www.w3.org/1999/xlink" xml:space="preserve" xmlns:serif="http://www.serif.com/" style="fill-rule:evenodd;clip-rule:evenodd;stroke-miterlimit:2.613;"><path d="M304.569,125.27l-63.669,64.044l-63.668,-64.044l16.757,-16.848l46.911,47.197l46.912,-47.197l16.757,16.848Z" style="fill:#cc2841;"/><path d="M304.569,125.27l-63.669,64.044l-63.668,-64.044l16.757,-16.848l46.911,47.197l46.912,-47.197l16.757,16.848" style="fill:none;fill-rule:nonzero;stroke:#cc2841;stroke-width:2.5px;"/><path d="M492.254,125.27l-63.681,64.044l-63.669,-64.044l16.744,-16.848l46.925,47.197l46.925,-47.197l16.756,16.848Z" style="fill:#cc2841;"/><path d="M492.254,125.27l-63.681,64.044l-63.669,-64.044l16.744,-16.848l46.925,47.197l46.925,-47.197l16.756,16.848" style="fill:none;fill-rule:nonzero;stroke:#cc2841;stroke-width:2.5px;"/><path d="M163.808,138.758l63.682,64.058l-63.682,64.019l-16.757,-16.835l46.938,-47.184l-46.938,-47.197l16.757,-16.861Z" style="fill:#cc2841;"/><path d="M163.808,138.758l63.682,64.058l-63.682,64.019l-16.757,-16.822l46.938,-47.197l-46.938,-47.197l16.757,-16.861" style="fill:none;fill-rule:nonzero;stroke:#cc2841;stroke-width:2.5px;"/><path d="M271.068,374.717l63.669,-64.031l63.668,64.031l-16.757,16.848l-46.911,-47.197l-46.925,47.197l-16.744,-16.848Z" style="fill:#cc2841;"/><path d="M271.068,374.717l63.669,-64.031l63.668,64.031l-16.757,16.848l-46.911,-47.171l-46.925,47.171l-16.744,-16.848" style="fill:none;fill-rule:nonzero;stroke:#cc2841;stroke-width:2.5px;"/><path d="M505.665,266.835l-63.681,-64.019l63.681,-64.058l16.744,16.861l-46.911,47.197l46.911,47.184l-16.744,16.835Z" style="fill:#cc2841;"/><path d="M505.665,266.835l-63.694,-64.019l63.694,-64.058l16.744,16.861l-46.911,47.197l46.911,47.197l-16.744,16.822" style="fill:none;fill-rule:nonzero;stroke:#cc2841;stroke-width:2.5px;"/><path d="M304.569,280.336l-63.669,-64.044l-63.668,64.044l16.757,16.848l46.911,-47.184l46.912,47.184l-46.912,47.184l16.757,16.874l63.669,-64.058l-16.757,-16.848Z" style="fill:#cc2841;"/><path d="M304.569,280.336l-63.669,-64.044l-63.668,64.044l16.757,16.848l46.911,-47.171l46.912,47.171l-46.912,47.21l16.757,16.848l63.669,-64.058l-16.757,-16.848" style="fill:none;fill-rule:nonzero;stroke:#cc2841;stroke-width:2.5px;"/><path d="M411.816,233.152l-63.669,64.032l63.669,64.058l16.757,-16.874l-46.925,-47.184l46.925,-47.184l46.925,47.184l16.756,-16.848l-63.681,-64.044l-16.757,16.86Z" style="fill:#cc2841;"/><path d="M411.816,233.152l-63.669,64.032l63.669,64.058l16.757,-16.848l-46.925,-47.21l46.925,-47.171l46.925,47.171l16.756,-16.848l-63.681,-64.044l-16.757,16.86" style="fill:none;fill-rule:nonzero;stroke:#cc2841;stroke-width:2.5px;"/><path d="M287.812,202.816l46.925,47.184l46.911,-47.184l-46.911,-47.197l16.744,-16.861l63.694,64.058l-80.438,80.892l-80.426,-80.892l63.669,-64.058l16.757,16.861l-46.925,47.197Z" style="fill:#cc2841;"/><path d="M287.812,202.816l46.925,47.197l46.911,-47.197l-46.911,-47.197l16.744,-16.861l63.694,64.058l-80.438,80.892l-80.439,-80.892l63.682,-64.058l16.757,16.861l-46.925,47.197" style="fill:none;fill-rule:nonzero;stroke:#cc2841;stroke-width:2.5px;"/><path d="M803.179,151.041c-10.973,-7.211 -22.84,-10.804 -42.995,-10.804c-36.043,-0 -59.998,26.367 -59.998,61.515c-0,36.938 26.406,61.503 58.882,61.503c15.447,0 19.481,-1.595 25.084,-2.711l-0,-47.767l-32.917,-0l-0,-18.482l55.316,-0l-0,81.8c-8.521,2.918 -23.307,6.965 -47.703,6.965c-49.493,-0 -82.41,-31.996 -82.41,-81.995c0,-48.416 34.928,-80.633 82.63,-80.633c22.84,0 32.918,3.372 45.913,7.873l-1.802,22.736Zm127.337,124.587c-8.054,2.918 -17.237,7.419 -36.043,7.419c-40.531,-0 -59.116,-24.798 -59.116,-62.177c-0,-34.007 21.27,-58.105 53.513,-58.105c38.066,0 50.374,27.937 50.374,64.888l-81.502,0c0,22.723 17.691,38.287 37.613,38.287c13.877,-0 29.999,-7.224 35.148,-11.478l-0,21.166l0.013,0Zm-13.657,-63.772c-0,-17.574 -10.285,-31.996 -28.443,-31.996c-20.596,-0 -29.104,17.133 -30.661,31.996l59.104,-0Zm45.614,-46.393l19.701,0l0,16.666l0.454,0c8.08,-13.294 19.481,-19.377 36.277,-19.377c13.216,0 26.419,6.758 32.463,22.308c7.834,-16.445 25.084,-22.308 35.395,-22.308c29.104,0 39.635,18.923 39.635,43.929l0,73.655l-21.05,0l0,-68.48c0,-14.189 -3.346,-31.996 -20.375,-31.996c-21.491,-0 -29.999,21.192 -29.999,42.579l-0,57.884l-21.05,0l-0,-68.48c-0,-14.189 -3.359,-31.996 -20.363,-31.996c-21.504,-0 -30.012,21.192 -30.012,42.579l0,57.884l-21.05,0l0,-114.847l-0.026,0Zm286.048,110.165c-8.067,2.918 -17.249,7.419 -36.055,7.419c-40.544,-0 -59.13,-24.798 -59.13,-62.177c0,-34.007 21.271,-58.105 53.514,-58.105c38.079,0 50.4,27.937 50.4,64.888l-81.528,0c0,22.723 17.704,38.287 37.638,38.287c13.878,-0 29.999,-7.224 35.161,-11.478l0,21.166Zm-13.683,-63.772c0,-17.574 -10.298,-31.996 -28.442,-31.996c-20.596,-0 -29.092,17.133 -30.687,31.996l59.129,-0Zm137.506,63.772c-8.054,2.918 -17.25,7.419 -36.069,7.419c-40.531,-0 -59.103,-24.798 -59.103,-62.177c-0,-34.007 21.283,-58.105 53.5,-58.105c38.079,0 50.387,27.937 50.387,64.888l-81.489,0c0,22.723 17.678,38.287 37.613,38.287c13.877,-0 29.986,-7.224 35.161,-11.478l-0,21.166Zm-13.657,-63.772c-0,-17.574 -10.311,-31.996 -28.443,-31.996c-20.622,-0 -29.104,17.133 -30.674,31.996l59.117,-0Zm45.472,-46.393l20.362,0l0,18.249l0.454,-0c6.277,-13.061 21.504,-20.96 37.418,-20.96c29.532,0 42.761,18.469 42.761,49.35l0,68.234l-21.05,0l0,-59.466c0,-26.783 -5.823,-39.856 -24.162,-40.998c-23.994,0 -34.733,19.377 -34.733,47.314l-0,53.15l-21.05,0l-0,-114.873Zm194.105,17.12l-30.219,0l-0,62.839c-0,13.268 8.054,20.492 17.677,20.492c6.485,-0 11.193,-2.023 14.332,-4.047l-0,18.015c-4.708,1.349 -11.193,3.165 -17.937,3.165c-21.712,-0 -35.135,-10.363 -35.135,-33.332l-0,-67.132l-25.758,0l-0,-17.12l25.758,0l-0,-26.575l21.05,-6.757l-0,33.332l30.219,0l0,17.12l0.013,0Zm104.147,93.045c-8.054,2.918 -17.224,7.419 -36.017,7.419c-40.53,-0 -59.129,-24.798 -59.129,-62.177c0,-34.007 21.258,-58.105 53.526,-58.105c38.08,0 50.388,27.937 50.388,64.888l-81.515,0c-0,22.723 17.678,38.287 37.612,38.287c13.878,-0 29.986,-7.224 35.135,-11.478l0,21.166Zm-13.631,-63.772c0,-17.574 -10.311,-31.996 -28.443,-31.996c-20.596,-0 -29.104,17.133 -30.673,31.996l59.116,-0Zm107.351,-88.739l42.333,-0c32.451,-0 54.849,10.583 54.849,39.635c0,21.621 -12.541,32.425 -32.243,37.405l0,0.441c21.284,1.803 36.277,15.771 36.277,37.846c-0,33.812 -27.768,41.892 -59.557,41.892l-41.646,0l-0,-157.219l-0.013,-0Zm22.399,138.75l16.795,0c20.143,0 38.274,-4.28 38.274,-25.446c0,-24.319 -21.283,-27.704 -40.53,-27.704l-14.539,0l-0,53.15Zm-0,-71.632l12.308,0c21.711,0 40.077,-2.023 40.077,-25.226c-0,-18.702 -15.888,-23.423 -28.884,-23.423l-23.501,-0l-0,48.649Zm107.882,-24.772l19.714,0l0,17.795l0.454,-0c5.603,-11.933 17.678,-20.506 29.792,-20.506c6.251,0 9.403,0.688 13.877,1.57l0,18.923c-3.716,-1.416 -7.67,-2.103 -11.647,-2.024c-18.793,0 -31.127,18.015 -31.127,46.86l0,52.255l-21.05,0l0,-114.873l-0.013,0Zm167.933,110.165c-8.055,2.918 -17.224,7.419 -36.043,7.419c-40.531,-0 -59.104,-24.798 -59.104,-62.177c0,-34.007 21.258,-58.105 53.501,-58.105c38.079,0 50.387,27.937 50.387,64.888l-81.489,0c0,22.723 17.678,38.287 37.587,38.287c13.903,-0 30.012,-7.224 35.161,-11.478l-0,21.166Zm-13.657,-63.772c-0,-17.574 -10.311,-31.996 -28.443,-31.996c-20.596,-0 -29.078,17.133 -30.648,31.996l59.091,-0Zm132.732,52.268l-0.454,0c-5.603,8.56 -18.599,18.923 -38.961,18.923c-34.5,-0 -49.039,-30.868 -49.039,-62.177c0,-30.855 16.109,-58.105 49.272,-58.105c19.909,0 31.335,7.886 37.82,18.469l0.454,0l0,-69.829l21.05,0l0,168.931l-20.142,0l0,-16.212Zm-34.474,1.79c23.735,-0 33.566,-23.657 33.566,-42.787c0,-21.387 -10.972,-43.267 -33.812,-43.267c-22.827,-0 -31.789,21.646 -31.335,42.579c-0.467,18.028 8.936,43.475 31.581,43.475Zm89.57,-92.345c10.531,-6.303 23.073,-10.817 37.638,-10.817c32.684,0 45.874,16.226 45.874,47.548l-0,47.521c-0,13.073 0.454,19.156 0.908,22.515l-19.714,0l-0,-14.876l-0.454,-0c-4.916,6.991 -16.109,17.574 -35.369,17.574c-24.642,-0 -41.892,-10.791 -41.892,-35.822c-0,-28.832 31.387,-37.846 53.098,-37.846c8.262,-0 14.111,-0 22.373,0.454c0,-19.818 -7.146,-29.973 -28.196,-29.973c-11.855,-0 -24.643,4.513 -33.138,11.724l-1.128,-18.002Zm62.475,52.035c-4.488,-0 -8.936,-0.441 -13.424,-0.441c-11.4,-0 -39.622,1.803 -39.622,22.074c-0,12.166 11.621,18.69 21.257,18.69c20.843,-0 31.789,-13.074 31.789,-30.181l-0,-10.142Z"/></svg>